<svg xmlns="http://www.w3.org/2000/svg" id="canvas" viewBox="398.737 276.248 472.044 172.711"><path d="M 407.52,348.94 C 408.86 348.69, 410.05 347.96, 410.64 347.07 C 411.24 346.18, 411.05 345.20, 410.51 344.49 C 409.97 343.78, 408.71 343.42, 407.94 343.52 C 407.18 343.62, 406.90 343.96, 406.70 344.98 C 406.49 346.00, 406.59 346.62, 406.90 348.63 C 407.21 350.63, 407.58 351.97, 408.24 355.03 C 408.89 358.08, 409.43 360.10, 410.19 363.90 C 410.95 367.70, 411.25 369.83, 412.06 374.04 C 412.86 378.26, 413.37 380.56, 414.22 384.96 C 415.07 389.37, 415.50 391.65, 416.32 396.08 C 417.14 400.52, 417.56 402.85, 418.32 407.14 C 419.09 411.43, 419.36 413.68, 420.15 417.53 C 420.94 421.38, 421.24 423.30, 422.28 426.38 C 423.31 429.45, 424.07 430.92, 425.33 432.90 C 426.59 434.89, 427.37 435.38, 428.58 436.30 C 429.80 437.22, 430.52 437.55, 431.40 437.49 C 432.29 437.43, 432.82 436.78, 433.02 435.98 C 433.22 435.18, 432.77 434.72, 432.40 433.49 C 432.03 432.26, 431.95 431.71, 431.18 429.83 C 430.41 427.94, 429.64 426.80, 428.54 424.07 C 427.44 421.34, 426.70 419.77, 425.68 416.19 C 424.66 412.60, 424.33 410.36, 423.46 406.15 C 422.59 401.94, 422.15 399.58, 421.33 395.16 C 420.51 390.73, 420.09 388.44, 419.36 384.04 C 418.62 379.64, 418.19 377.35, 417.66 373.16 C 417.14 368.96, 416.96 366.90, 416.74 363.05 C 416.51 359.21, 416.71 357.24, 416.53 353.94 C 416.35 350.64, 416.57 348.97, 415.85 346.55 C 415.12 344.12, 414.34 343.14, 412.92 341.80 C 411.50 340.46, 410.60 339.97, 408.75 339.83 C 406.91 339.69, 405.10 340.08, 403.70 341.11 C 402.30 342.14, 401.69 343.53, 401.74 344.97 C 401.79 346.41, 402.79 347.52, 403.95 348.31 C 405.11 349.11, 406.18 349.19, 407.52 348.94" style="stroke: black; fill: black;"/><path d="M 420.98,315.90 C 420.36 316.45, 420.26 316.42, 420.05 317.44 C 419.84 318.46, 419.32 319.17, 419.93 321.01 C 420.54 322.85, 421.24 324.07, 423.09 326.65 C 424.94 329.24, 426.57 330.67, 429.18 333.93 C 431.79 337.19, 433.27 338.95, 436.14 342.97 C 439.00 346.98, 440.45 349.41, 443.51 354.01 C 446.58 358.62, 448.22 361.07, 451.45 366.00 C 454.67 370.93, 456.30 373.61, 459.65 378.66 C 462.99 383.71, 464.75 386.36, 468.17 391.27 C 471.59 396.17, 473.24 398.50, 476.75 403.17 C 480.26 407.84, 482.18 410.28, 485.71 414.60 C 489.24 418.93, 491.19 421.15, 494.40 424.80 C 497.61 428.45, 499.07 429.97, 501.75 432.86 C 504.42 435.75, 505.58 437.10, 507.77 439.25 C 509.96 441.39, 510.81 442.26, 512.70 443.57 C 514.58 444.89, 515.38 445.50, 517.21 445.81 C 519.03 446.13, 520.24 445.95, 521.82 445.13 C 523.41 444.30, 524.11 443.60, 525.13 441.70 C 526.15 439.80, 526.88 438.53, 526.94 435.64 C 527.00 432.75, 526.23 430.87, 525.43 427.25 C 524.64 423.62, 523.96 421.69, 522.96 417.51 C 521.95 413.33, 521.43 411.06, 520.41 406.33 C 519.39 401.60, 518.83 399.01, 517.86 393.87 C 516.89 388.74, 516.36 386.16, 515.56 380.67 C 514.75 375.17, 514.60 372.21, 513.84 366.39 C 513.07 360.58, 512.50 357.45, 511.73 351.59 C 510.97 345.73, 510.60 342.63, 510.01 337.10 C 509.43 331.56, 509.25 328.96, 508.83 323.92 C 508.41 318.87, 508.29 316.41, 507.91 311.86 C 507.53 307.32, 507.25 305.10, 506.92 301.20 C 506.59 297.30, 506.53 295.45, 506.26 292.36 C 505.99 289.28, 505.99 287.92, 505.56 285.77 C 505.12 283.62, 504.64 282.84, 504.10 281.61 C 503.55 280.38, 503.47 280.05, 502.83 279.63 C 502.19 279.21, 501.59 279.08, 500.91 279.53 C 500.22 279.98, 499.81 280.47, 499.41 281.87 C 499.02 283.28, 498.83 284.28, 498.92 286.55 C 499.01 288.81, 499.31 290.14, 499.85 293.21 C 500.39 296.28, 500.92 298.07, 501.61 301.90 C 502.30 305.73, 502.69 307.88, 503.30 312.37 C 503.90 316.85, 504.09 319.29, 504.64 324.32 C 505.19 329.36, 505.41 331.98, 506.06 337.53 C 506.70 343.09, 507.09 346.22, 507.87 352.09 C 508.64 357.97, 509.21 361.06, 509.94 366.89 C 510.66 372.72, 510.77 375.68, 511.48 381.23 C 512.19 386.77, 512.66 389.43, 513.47 394.63 C 514.28 399.83, 514.76 402.46, 515.52 407.24 C 516.27 412.02, 516.71 414.36, 517.23 418.55 C 517.74 422.74, 517.99 424.76, 518.09 428.17 C 518.18 431.59, 517.65 433.20, 517.70 435.63 C 517.76 438.06, 517.97 439.08, 518.35 440.32 C 518.73 441.55, 519.46 441.68, 519.62 441.80 C 519.78 441.92, 519.74 441.57, 519.14 440.92 C 518.54 440.27, 518.05 439.84, 516.63 438.56 C 515.21 437.28, 514.30 436.39, 512.05 434.52 C 509.80 432.64, 508.23 431.72, 505.36 429.18 C 502.49 426.63, 501.00 425.21, 497.69 421.77 C 494.38 418.34, 492.39 416.19, 488.81 412.01 C 485.22 407.83, 483.29 405.45, 479.78 400.87 C 476.26 396.29, 474.63 393.98, 471.24 389.12 C 467.85 384.26, 466.12 381.63, 462.83 376.57 C 459.54 371.52, 457.93 368.83, 454.80 363.85 C 451.67 358.87, 450.07 356.40, 447.19 351.68 C 444.30 346.95, 442.91 344.45, 440.37 340.20 C 437.84 335.95, 436.46 334.05, 434.52 330.41 C 432.59 326.78, 432.08 324.72, 430.71 322.01 C 429.34 319.31, 428.79 318.29, 427.67 316.89 C 426.56 315.49, 426.04 315.47, 425.13 315.03 C 424.23 314.58, 423.98 314.51, 423.15 314.69 C 422.32 314.86, 421.60 315.35, 420.98 315.90" style="stroke: black; fill: black;"/><path d="M 585.54,374.12 C 585.97 372.95, 585.90 371.90, 585.12 370.20 C 584.34 368.51, 583.55 367.31, 581.64 365.66 C 579.72 364.02, 578.19 363.09, 575.54 361.99 C 572.89 360.88, 571.35 360.71, 568.39 360.14 C 565.44 359.58, 563.87 359.33, 560.77 359.16 C 557.67 359.00, 556.05 358.92, 552.89 359.32 C 549.73 359.72, 548.02 360.02, 544.98 361.16 C 541.94 362.30, 540.44 363.18, 537.70 365.03 C 534.97 366.89, 533.60 367.86, 531.29 370.45 C 528.98 373.04, 527.88 374.77, 526.15 378.00 C 524.42 381.24, 523.62 383.08, 522.63 386.61 C 521.65 390.15, 521.31 392.10, 521.23 395.68 C 521.15 399.27, 521.35 401.20, 522.24 404.54 C 523.13 407.88, 523.79 409.49, 525.70 412.39 C 527.61 415.29, 528.91 416.76, 531.80 419.05 C 534.69 421.33, 536.52 422.41, 540.14 423.82 C 543.77 425.24, 545.90 425.70, 549.91 426.12 C 553.92 426.55, 556.15 426.55, 560.18 425.94 C 564.22 425.34, 566.23 424.57, 570.09 423.08 C 573.94 421.60, 575.92 420.71, 579.44 418.53 C 582.96 416.36, 584.79 415.09, 587.69 412.20 C 590.59 409.32, 591.90 407.49, 593.94 404.10 C 595.98 400.72, 596.97 398.91, 597.89 395.29 C 598.82 391.67, 599.08 389.43, 598.57 386.01 C 598.05 382.59, 596.69 379.57, 595.32 378.18 C 593.94 376.79, 592.31 377.39, 591.68 379.07 C 591.05 380.74, 592.15 383.61, 592.18 386.56 C 592.21 389.50, 592.50 390.90, 591.82 393.80 C 591.15 396.70, 590.44 398.20, 588.79 401.06 C 587.14 403.92, 586.04 405.59, 583.57 408.11 C 581.09 410.63, 579.54 411.75, 576.43 413.66 C 573.32 415.58, 571.45 416.41, 568.03 417.70 C 564.62 418.99, 562.83 419.65, 559.35 420.12 C 555.87 420.58, 554.00 420.48, 550.64 420.03 C 547.28 419.58, 545.49 419.09, 542.56 417.85 C 539.63 416.61, 538.22 415.68, 535.99 413.84 C 533.76 412.00, 532.84 410.87, 531.42 408.66 C 529.99 406.44, 529.54 405.35, 528.86 402.78 C 528.18 400.22, 527.96 398.69, 528.03 395.83 C 528.09 392.97, 528.34 391.37, 529.17 388.46 C 530.01 385.56, 530.73 383.95, 532.20 381.30 C 533.68 378.66, 534.62 377.26, 536.53 375.23 C 538.44 373.21, 539.53 372.57, 541.74 371.18 C 543.94 369.79, 545.16 369.12, 547.56 368.30 C 549.95 367.48, 551.20 367.29, 553.72 367.08 C 556.24 366.87, 557.58 366.99, 560.17 367.25 C 562.75 367.51, 564.30 367.81, 566.65 368.37 C 569.00 368.93, 570.05 369.13, 571.92 370.06 C 573.80 370.98, 574.44 371.95, 576.01 372.98 C 577.58 374.02, 578.37 374.62, 579.77 375.24 C 581.16 375.86, 581.81 376.30, 582.97 376.08 C 584.12 375.85, 585.11 375.29, 585.54 374.12" style="stroke: black; fill: black;"/><path d="M 610.09,296.43 C 609.22 296.98, 609.19 297.20, 608.58 298.72 C 607.96 300.24, 607.06 301.32, 607.01 304.04 C 606.96 306.76, 607.74 308.55, 608.33 312.33 C 608.92 316.11, 609.31 318.54, 609.96 322.93 C 610.62 327.32, 610.88 329.48, 611.61 334.28 C 612.34 339.08, 612.79 341.77, 613.61 346.95 C 614.43 352.13, 614.85 354.81, 615.70 360.20 C 616.55 365.59, 616.92 368.50, 617.85 373.91 C 618.79 379.32, 619.48 382.13, 620.38 387.26 C 621.28 392.39, 621.60 395.02, 622.36 399.55 C 623.13 404.08, 623.40 406.51, 624.21 409.91 C 625.02 413.30, 625.52 414.55, 626.40 416.54 C 627.28 418.53, 627.74 419.27, 628.60 419.85 C 629.45 420.42, 630.12 420.31, 630.66 419.41 C 631.20 418.51, 631.45 417.51, 631.30 415.33 C 631.14 413.15, 630.74 411.86, 629.90 408.52 C 629.06 405.17, 628.14 403.00, 627.09 398.59 C 626.04 394.18, 625.67 391.53, 624.64 386.45 C 623.62 381.37, 622.92 378.57, 621.97 373.19 C 621.02 367.81, 620.69 364.93, 619.90 359.56 C 619.11 354.18, 618.70 351.49, 618.01 346.31 C 617.33 341.13, 616.95 338.45, 616.48 333.67 C 616.01 328.88, 615.84 326.75, 615.66 322.39 C 615.48 318.02, 615.50 315.51, 615.59 311.84 C 615.67 308.16, 616.15 306.65, 616.08 304.01 C 616.02 301.38, 615.89 300.29, 615.26 298.68 C 614.63 297.07, 613.96 296.42, 612.93 295.97 C 611.89 295.52, 610.96 295.89, 610.09 296.43" style="stroke: black; fill: black;"/><path d="M 599.09,374.93 C 599.87 375.67, 600.33 375.50, 601.95 375.76 C 603.56 376.01, 604.52 376.51, 607.18 376.21 C 609.83 375.91, 611.47 374.87, 615.23 374.28 C 618.99 373.68, 621.48 373.67, 625.97 373.23 C 630.46 372.78, 632.75 372.53, 637.67 372.04 C 642.60 371.56, 645.78 371.33, 650.61 370.78 C 655.44 370.23, 658.13 369.81, 661.81 369.27 C 665.49 368.74, 666.81 368.83, 669.01 368.10 C 671.21 367.36, 671.92 366.45, 672.80 365.58 C 673.67 364.72, 673.39 364.29, 673.37 363.76 C 673.36 363.22, 673.08 363.19, 672.72 362.92 C 672.37 362.66, 672.58 362.58, 671.58 362.44 C 670.58 362.29, 669.88 361.99, 667.73 362.20 C 665.58 362.40, 664.38 362.78, 660.82 363.47 C 657.26 364.17, 654.65 364.98, 649.93 365.69 C 645.21 366.41, 642.08 366.66, 637.23 367.05 C 632.37 367.44, 630.16 367.59, 625.66 367.63 C 621.17 367.67, 618.67 367.33, 614.74 367.26 C 610.82 367.19, 608.88 366.90, 606.04 367.30 C 603.20 367.70, 602.14 368.32, 600.53 369.28 C 598.93 370.23, 598.33 370.95, 598.04 372.09 C 597.75 373.22, 598.31 374.20, 599.09 374.93" style="stroke: black; fill: black;"/><path d="M 667.26,392.39 C 668.35 393.09, 669.58 393.09, 671.64 392.80 C 673.69 392.51, 674.77 392.11, 677.54 390.94 C 680.31 389.76, 682.19 388.72, 685.49 386.93 C 688.79 385.14, 690.67 383.96, 694.05 381.99 C 697.43 380.01, 699.12 378.98, 702.37 377.06 C 705.63 375.14, 707.44 374.21, 710.32 372.39 C 713.20 370.56, 714.76 369.86, 716.78 367.95 C 718.79 366.04, 719.57 364.90, 720.40 362.83 C 721.24 360.75, 721.36 359.56, 720.96 357.58 C 720.56 355.59, 720.09 354.48, 718.38 352.91 C 716.68 351.34, 715.33 350.31, 712.45 349.73 C 709.56 349.15, 707.71 349.51, 703.94 350.01 C 700.17 350.50, 697.92 351.01, 693.60 352.20 C 689.28 353.39, 686.73 354.10, 682.35 355.95 C 677.97 357.80, 675.74 359.09, 671.71 361.45 C 667.67 363.80, 665.51 364.99, 662.17 367.72 C 658.83 370.45, 657.35 371.93, 655.02 375.11 C 652.69 378.29, 651.64 380.14, 650.51 383.63 C 649.38 387.12, 648.90 389.05, 649.37 392.55 C 649.85 396.05, 650.80 397.97, 652.87 401.14 C 654.93 404.31, 656.29 405.82, 659.71 408.41 C 663.13 410.99, 665.39 412.19, 669.95 414.07 C 674.52 415.95, 677.14 416.68, 682.54 417.81 C 687.95 418.94, 691.42 419.26, 697.00 419.72 C 702.57 420.19, 705.86 420.32, 710.42 420.13 C 714.98 419.95, 717.98 419.67, 719.82 418.81 C 721.66 417.95, 721.51 416.45, 719.63 415.82 C 717.74 415.19, 714.84 415.80, 710.39 415.68 C 705.94 415.55, 702.76 415.65, 697.39 415.18 C 692.01 414.71, 688.60 414.47, 683.52 413.32 C 678.43 412.18, 676.01 411.34, 671.97 409.46 C 667.92 407.58, 666.04 406.26, 663.28 403.92 C 660.51 401.59, 659.63 400.24, 658.13 397.79 C 656.63 395.34, 656.11 394.14, 655.76 391.68 C 655.41 389.21, 655.61 388.12, 656.39 385.46 C 657.17 382.80, 657.84 381.12, 659.68 378.39 C 661.51 375.65, 662.63 374.27, 665.56 371.77 C 668.48 369.27, 670.53 368.07, 674.29 365.90 C 678.05 363.73, 680.22 362.48, 684.35 360.91 C 688.47 359.34, 690.92 358.77, 694.93 358.06 C 698.95 357.36, 701.21 357.36, 704.44 357.38 C 707.68 357.40, 708.98 357.96, 711.11 358.17 C 713.24 358.38, 714.05 358.39, 715.10 358.45 C 716.15 358.51, 716.32 358.21, 716.36 358.49 C 716.41 358.77, 716.18 359.04, 715.33 359.86 C 714.47 360.68, 713.84 361.20, 712.09 362.58 C 710.34 363.97, 709.15 364.94, 706.57 366.77 C 703.98 368.60, 702.28 369.82, 699.17 371.74 C 696.05 373.67, 694.33 374.67, 690.98 376.38 C 687.62 378.10, 685.78 378.99, 682.40 380.33 C 679.03 381.67, 676.79 381.85, 674.10 383.07 C 671.41 384.28, 670.52 385.16, 668.94 386.41 C 667.35 387.66, 666.52 388.11, 666.18 389.31 C 665.85 390.50, 666.17 391.69, 667.26 392.39" style="stroke: black; fill: black;"/><path d="M 752.57,372.66 C 751.68 373.23, 751.61 373.78, 751.27 374.95 C 750.92 376.13, 750.80 376.77, 750.85 378.54 C 750.89 380.30, 751.09 381.41, 751.48 383.77 C 751.87 386.14, 752.27 387.70, 752.81 390.36 C 753.36 393.02, 753.65 394.39, 754.21 397.05 C 754.77 399.71, 755.08 401.50, 755.62 403.66 C 756.17 405.82, 756.34 406.65, 756.94 407.85 C 757.55 409.06, 758.00 409.62, 758.63 409.68 C 759.27 409.73, 759.96 409.24, 760.13 408.12 C 760.31 407.01, 760.26 406.03, 759.52 404.10 C 758.78 402.17, 757.92 400.87, 756.42 398.48 C 754.93 396.09, 753.57 394.81, 752.03 392.14 C 750.50 389.47, 749.82 387.96, 748.77 385.13 C 747.71 382.29, 747.22 380.79, 746.74 377.96 C 746.27 375.13, 746.28 373.65, 746.40 370.99 C 746.52 368.33, 746.70 366.94, 747.34 364.67 C 747.99 362.39, 748.28 361.46, 749.63 359.62 C 750.97 357.77, 752.14 356.82, 754.07 355.43 C 755.99 354.04, 756.93 353.54, 759.25 352.65 C 761.57 351.76, 763.02 351.47, 765.68 350.99 C 768.33 350.52, 769.84 350.40, 772.52 350.28 C 775.20 350.16, 776.53 350.19, 779.08 350.39 C 781.64 350.58, 783.07 351.05, 785.30 351.24 C 787.54 351.44, 788.58 351.44, 790.26 351.35 C 791.94 351.26, 792.85 351.40, 793.71 350.80 C 794.58 350.21, 794.97 349.44, 794.60 348.39 C 794.23 347.34, 793.43 346.55, 791.85 345.57 C 790.27 344.58, 789.13 344.11, 786.69 343.47 C 784.25 342.83, 782.57 342.56, 779.65 342.36 C 776.72 342.17, 775.13 342.28, 772.06 342.50 C 768.99 342.71, 767.40 342.87, 764.29 343.46 C 761.17 344.05, 759.44 344.30, 756.47 345.45 C 753.51 346.60, 752.08 347.25, 749.47 349.21 C 746.86 351.17, 745.27 352.55, 743.42 355.24 C 741.57 357.94, 741.07 359.57, 740.21 362.67 C 739.35 365.77, 739.22 367.45, 739.13 370.74 C 739.04 374.03, 739.21 375.80, 739.78 379.14 C 740.35 382.48, 740.95 384.18, 741.98 387.45 C 743.02 390.72, 743.72 392.35, 744.94 395.49 C 746.15 398.63, 746.70 400.44, 748.06 403.16 C 749.42 405.87, 750.10 407.27, 751.73 409.06 C 753.35 410.85, 754.37 411.59, 756.19 412.11 C 758.01 412.62, 759.38 412.50, 760.84 411.63 C 762.29 410.77, 762.87 409.62, 763.45 407.79 C 764.02 405.96, 763.82 404.94, 763.70 402.50 C 763.59 400.05, 763.24 398.28, 762.87 395.55 C 762.50 392.83, 762.20 391.58, 761.86 388.87 C 761.53 386.16, 761.67 384.44, 761.19 382.01 C 760.72 379.57, 760.15 378.36, 759.47 376.70 C 758.78 375.04, 758.51 374.64, 757.77 373.71 C 757.02 372.79, 756.78 372.28, 755.74 372.07 C 754.70 371.86, 753.46 372.08, 752.57 372.66" style="stroke: black; fill: black;"/><path d="M 819.24,361.41 C 818.21 361.79, 817.98 362.28, 817.20 363.56 C 816.43 364.83, 815.81 365.63, 815.35 367.80 C 814.90 369.96, 814.93 371.62, 814.92 374.37 C 814.91 377.12, 815.12 378.47, 815.30 381.55 C 815.48 384.63, 815.77 386.47, 815.82 389.78 C 815.88 393.10, 815.63 394.85, 815.59 398.12 C 815.55 401.39, 815.38 403.31, 815.62 406.13 C 815.87 408.96, 816.06 410.44, 816.82 412.23 C 817.58 414.02, 818.30 414.68, 819.44 415.10 C 820.57 415.53, 821.47 415.32, 822.49 414.35 C 823.50 413.39, 824.30 412.34, 824.51 410.26 C 824.73 408.18, 824.34 406.63, 823.57 403.95 C 822.80 401.28, 821.84 399.87, 820.66 396.91 C 819.48 393.95, 818.78 392.26, 817.68 389.15 C 816.57 386.05, 815.91 384.38, 815.12 381.38 C 814.34 378.39, 814.13 376.99, 813.75 374.18 C 813.38 371.37, 813.16 369.91, 813.25 367.31 C 813.35 364.71, 813.50 363.45, 814.22 361.19 C 814.93 358.93, 815.40 357.97, 816.82 356.02 C 818.23 354.07, 818.97 353.10, 821.30 351.44 C 823.62 349.78, 825.13 348.97, 828.46 347.71 C 831.79 346.45, 833.80 345.81, 837.93 345.15 C 842.05 344.48, 844.78 344.48, 849.08 344.37 C 853.39 344.26, 855.95 344.79, 859.47 344.58 C 862.99 344.38, 865.23 344.17, 866.69 343.34 C 868.14 342.51, 868.14 341.31, 866.72 340.44 C 865.30 339.57, 863.14 339.36, 859.58 339.01 C 856.03 338.66, 853.44 338.57, 848.94 338.68 C 844.44 338.79, 841.57 338.90, 837.07 339.56 C 832.57 340.22, 830.36 340.70, 826.46 341.96 C 822.56 343.22, 820.65 343.91, 817.57 345.84 C 814.50 347.77, 813.18 349.01, 811.09 351.62 C 809.00 354.23, 808.15 355.79, 807.13 358.89 C 806.11 361.99, 806.05 363.85, 805.97 367.10 C 805.89 370.36, 806.29 371.95, 806.75 375.16 C 807.21 378.36, 807.49 379.88, 808.29 383.12 C 809.09 386.36, 809.83 388.15, 810.74 391.36 C 811.64 394.58, 812.27 396.16, 812.82 399.17 C 813.36 402.18, 812.95 403.81, 813.46 406.42 C 813.98 409.03, 814.36 410.44, 815.40 412.22 C 816.44 413.99, 817.30 414.75, 818.68 415.28 C 820.07 415.82, 821.28 415.68, 822.31 414.88 C 823.35 414.08, 823.60 413.16, 823.87 411.28 C 824.14 409.41, 823.84 408.16, 823.66 405.52 C 823.49 402.87, 823.10 401.19, 823.00 398.05 C 822.90 394.91, 823.09 393.10, 823.16 389.80 C 823.24 386.51, 823.17 384.57, 823.37 381.58 C 823.57 378.59, 823.91 377.41, 824.17 374.84 C 824.43 372.27, 824.70 370.83, 824.67 368.73 C 824.65 366.63, 824.49 365.76, 824.02 364.34 C 823.56 362.92, 823.30 362.22, 822.35 361.64 C 821.39 361.05, 820.26 361.03, 819.24 361.41" style="stroke: black; fill: black;"/></svg>